<svg width="10" height="10" viewBox="0 0 10 10" fill="none" xmlns="http://www.w3.org/2000/svg">
<path d="M5.86495 0.755313L6.74495 2.51531C6.86495 2.76031 7.18495 2.99531 7.45495 3.04031L9.04995 3.30531C10.07 3.47531 10.31 4.21531 9.57495 4.94531L8.33495 6.18531C8.12495 6.39531 8.00995 6.80031 8.07495 7.09031L8.42995 8.62531C8.70995 9.84031 8.06495 10.3103 6.98995 9.67531L5.49495 8.79031C5.22495 8.63031 4.77995 8.63031 4.50495 8.79031L3.00995 9.67531C1.93995 10.3103 1.28995 9.83531 1.56995 8.62531L1.92495 7.09031C1.98995 6.80031 1.87495 6.39531 1.66495 6.18531L0.424955 4.94531C-0.305046 4.21531 -0.0700454 3.47531 0.949955 3.30531L2.54495 3.04031C2.80995 2.99531 3.12995 2.76031 3.24995 2.51531L4.12995 0.755313C4.60995 -0.199687 5.38995 -0.199687 5.86495 0.755313Z" fill="#FCD240"/>
</svg>
